<?xml version="1.0" encoding="utf-8"?>
<!-- Generator: Adobe Illustrator 21.0.0, SVG Export Plug-In . SVG Version: 6.00 Build 0)  -->
<svg version="1.1"
	 id="logo" inkscape:version="0.92.2 5c3e80d, 2017-08-06" sodipodi:docname="logo.svg" xmlns:cc="http://creativecommons.org/ns#" xmlns:dc="http://purl.org/dc/elements/1.1/" xmlns:inkscape="http://www.inkscape.org/namespaces/inkscape" xmlns:rdf="http://www.w3.org/1999/02/22-rdf-syntax-ns#" xmlns:sodipodi="http://sodipodi.sourceforge.net/DTD/sodipodi-0.dtd" xmlns:svg="http://www.w3.org/2000/svg"
	 xmlns="http://www.w3.org/2000/svg" xmlns:xlink="http://www.w3.org/1999/xlink" x="0px" y="0px" viewBox="0 0 400 300"
	 style="enable-background:new 0 0 400 300;" xml:space="preserve">
<style type="text/css">
	.st0{fill:#FF6600;}
</style>
<g id="g4687" transform="translate(208.667,422.6014)">
	<path id="path4689" inkscape:connector-curvature="0" class="st0" d="M-177.7-167.9h-19.1l29.4-56.8h21.1l28.1,56.8h-21.2
		l-4.3-10.2h-29.5L-177.7-167.9z M-148.8-190.5l-9.1-20.7l-9.6,20.7H-148.8z"/>
</g>
<path id="path4691" inkscape:connector-curvature="0" class="st0" d="M94.8,197.9h18.3v56.8H94.8V197.9z"/>
<path id="path4693" inkscape:connector-curvature="0" class="st0" d="M122.4,197.9h18.3v11.6h-18.3L122.4,197.9z M122.4,215.1h18.3
	v39.6h-18.3L122.4,215.1z"/>
<g id="g4703" transform="translate(265.8913,449.7558)">
	<path id="path4705" inkscape:connector-curvature="0" class="st0" d="M-115.2-251.9h18.3v22.9c2.2-2.2,4.6-3.9,7.3-5
		c2.7-1.1,5.6-1.7,8.8-1.7c6.2,0,11.2,2,15,6c3.8,4,5.7,9.3,5.7,15.8c0,6-1.9,10.8-5.6,14.4c-3.7,3.6-8.7,5.4-14.9,5.4
		c-3.4,0-6.5-0.6-9.3-1.9c-2.8-1.2-5.1-3.1-7.1-5.5c0,1.3,0,2.5-0.2,3.6c-0.1,1.1-0.3,2-0.5,2.8h-18.3c0.2-0.7,0.4-1.7,0.5-2.8
		c0.1-1.1,0.2-2.4,0.2-3.8V-251.9 M-78.5-214.7c0-3.5-0.8-6.2-2.5-8.3c-1.6-2-3.9-3-6.7-3c-3,0-5.3,1-7,2.9
		c-1.6,1.9-2.4,4.8-2.4,8.5c0,3.5,0.8,6.2,2.4,8.1c1.6,1.9,3.9,2.9,6.8,2.9c2.9,0,5.1-1,6.8-3C-79.4-208.6-78.5-211.3-78.5-214.7"/>
</g>
<g id="g4707" transform="translate(312.1904,425.6351)">
	<path id="path4709" inkscape:connector-curvature="0" class="st0" d="M-64.6-177.3c-1.7,2.3-4,4-6.8,5.1c-2.8,1.1-6.1,1.7-10.1,1.7
		c-5.6,0-10-1-13-3c-3-2-4.5-4.8-4.5-8.5c0-5,2.6-8.6,7.8-10.8c5.2-2.2,14-3.4,26.3-3.5c0-0.1,0-0.2,0-0.4c0-0.2,0-0.4,0-0.5
		c0-2-0.6-3.5-1.8-4.5c-1.2-1-3-1.5-5.5-1.5c-2.2,0-3.9,0.4-5.1,1.1c-1.2,0.7-1.9,1.8-2.1,3.3h-16.9c0.1-4.4,2.2-7.7,6.2-9.8
		c4.1-2.1,10.3-3.2,18.7-3.2c8,0,14,1.2,18,3.8c3.9,2.5,5.9,6.3,5.9,11.4v20.2c0,1.2,0.1,2.3,0.2,3c0.1,0.8,0.3,1.5,0.6,2.1h-17
		c-0.3-0.9-0.6-1.9-0.7-2.9C-64.5-175.2-64.6-176.2-64.6-177.3 M-65-188.6c-5.9,0-10,0.4-12.1,1.2c-2.1,0.8-3.2,2.1-3.2,4
		c0,1.3,0.5,2.3,1.6,3.1c1,0.7,2.5,1.1,4.4,1.1c3.1,0,5.4-0.7,7-2.2c1.6-1.4,2.3-3.6,2.3-6.6V-188.6z"/>
</g>
<g id="g4711" transform="translate(324.366,449.7558)">
	<path id="path4713" inkscape:connector-curvature="0" class="st0" d="M-51.3-251.9H-33v22.9c2.2-2.2,4.6-3.9,7.3-5
		c2.7-1.1,5.6-1.7,8.8-1.7c6.2,0,11.2,2,15,6c3.8,4,5.7,9.3,5.7,15.8c0,6-1.9,10.8-5.6,14.4c-3.7,3.6-8.7,5.4-14.9,5.4
		c-3.4,0-6.5-0.6-9.3-1.9c-2.8-1.2-5.1-3.1-7.1-5.5c0,1.3-0.1,2.5-0.2,3.6c-0.1,1.1-0.3,2-0.5,2.8h-18.3c0.2-0.7,0.4-1.7,0.5-2.8
		c0.1-1.1,0.2-2.4,0.2-3.8V-251.9 M-14.6-214.7c0-3.5-0.8-6.2-2.5-8.3c-1.6-2-3.9-3-6.7-3c-3,0-5.3,1-6.9,2.9
		c-1.6,1.9-2.4,4.8-2.4,8.5c0,3.5,0.8,6.2,2.4,8.1c1.6,1.9,3.9,2.9,6.8,2.9c2.8,0,5.1-1,6.8-3C-15.4-208.6-14.6-211.3-14.6-214.7"/>
</g>
<g id="g4715" transform="translate(370.6665,425.6351)">
	<path id="path4717" inkscape:connector-curvature="0" class="st0" d="M-0.7-177.3c-1.7,2.3-4,4-6.8,5.1c-2.8,1.1-6.1,1.7-10.1,1.7
		c-5.6,0-10-1-13-3c-3-2-4.5-4.8-4.5-8.5c0-5,2.6-8.6,7.8-10.8c5.2-2.2,14-3.4,26.3-3.5c0-0.1,0-0.2,0-0.4c0-0.2,0-0.4,0-0.5
		c0-2-0.6-3.5-1.8-4.5c-1.2-1-3-1.5-5.5-1.5c-2.2,0-3.9,0.4-5.1,1.1c-1.2,0.7-1.9,1.8-2.1,3.3h-16.9c0.1-4.4,2.2-7.7,6.2-9.8
		c4.1-2.1,10.3-3.2,18.7-3.2c8,0,14,1.2,18,3.8c3.9,2.5,5.9,6.3,5.9,11.4v20.2c0,1.2,0.1,2.3,0.2,3c0.1,0.8,0.3,1.5,0.6,2.1h-17
		c-0.3-0.9-0.6-1.9-0.7-2.9C-0.6-175.2-0.7-176.2-0.7-177.3 M-1.1-188.6c-5.9,0-9.9,0.4-12.1,1.2c-2.1,0.8-3.2,2.1-3.2,4
		c0,1.3,0.5,2.3,1.6,3.1c1,0.7,2.5,1.1,4.4,1.1c3.1,0,5.4-0.7,7-2.2c1.6-1.4,2.3-3.6,2.3-6.6L-1.1-188.6z"/>
</g>
<g id="g4739" transform="translate(112.6077,398.8102)">
	<path id="path4741" inkscape:connector-curvature="0" d="M7.9-244.7c-1-0.1-2.6-1-3.7-1.9c-10.7-10.5,3-22.6,19-29.6v-20
		c3.7,2.4,5.8,2.5,5.9,2.8l12.2-12.1l-4.1-10.4c35.7-12.3,50-17,79-21.9l-5.2-4.9l8.5-4.8c19.5,6.4,37.9,8.1,34.7,24.5
		c0.8-11.1-13-15.3-34-21.2l-4.1,2.5l7.8,6.4c-34.7,6-56.1,12.8-81.5,21.6l3.5,9L33.1-292c2.1,0.6,24.4,8,47.5-8.1
		c0,0,0.5-0.3,0.5-0.5c-0.7-1.1-2.3-2.4-4.2-4.1c6.8,0.5,11.2,6.4,10.4,12.6h-3.2c0.2-2-0.2-4.2-0.9-5.6
		c-17.9,13.1-38.7,15-56.4,8.8v15.5c-8.6,3-23.9,12.5-23.8,21.7C3.6-247.4,5.8-245.8,7.9-244.7"/>
</g>
<g id="g4743" transform="translate(147.6202,401.2868)">
	<path id="path4745" inkscape:connector-curvature="0" class="st0" d="M46.1-252.3c-19.2,9.7-37.6,17.5-65.9,18.6
		c-36.9-0.8-42.6-25.3-25.2-50.9c16.5-25.8,42.7-49.2,84.3-63.8c12.1-4.3,29.8-9.1,46.9-9.4c24.6-0.2,48.5,7.4,46.9,31
		c-0.9,18.1-27,43.5-40.7,61.8c-5.9,8-6.9,13.2,3.2,12.7c36.5-2.4,69.5-15,100.2-28.1c-20.8,14.1-128.1,67.2-128.5,31
		c0.1-4.6,2.2-9.5,5.7-14.7c3.4-5.2,8.1-10.6,13-16.1c7.3-8.3,25.5-28.3,31.6-40.3C127.9-342.9,104.9-344,85-351l-8.5,4.8l5.2,4.9
		c-29,4.8-43.3,9.6-79,21.9l4.1,10.4L-5.3-297c-0.3-0.3-2.1-0.4-5.9-2.8v20c-15.9,7-29.7,19.1-19,29.6c1.1,0.9,2.7,1.8,3.7,1.9
		C-6.9-237.3,46.2-252.3,46.1-252.3"/>
</g>
<g id="g4747" transform="translate(202.4596,395.08025)">
	<path id="path4749" inkscape:connector-curvature="0" class="st0" d="M106-233.1h2.5c0.5,0,0.9-0.1,1.2-0.2
		c0.3-0.1,0.5-0.3,0.7-0.5c0.2-0.3,0.2-0.5,0.2-0.8c0-0.4-0.2-0.8-0.5-1c-0.3-0.3-0.8-0.4-1.4-0.4H106V-233.1z M104.9-228.1v-8.9h4
		c0.8,0,1.4,0.1,1.8,0.2c0.4,0.2,0.7,0.4,1,0.9c0.3,0.4,0.4,0.8,0.4,1.3c0,0.6-0.2,1.2-0.6,1.6c-0.4,0.4-1,0.7-1.9,0.8
		c0.3,0.1,0.6,0.3,0.7,0.4c0.3,0.3,0.7,0.7,1,1.2l1.6,2.4h-1.5l-1.2-1.8c-0.3-0.6-0.6-1-0.9-1.3c-0.2-0.3-0.4-0.5-0.6-0.6
		c-0.2-0.1-0.3-0.2-0.5-0.2c-0.1,0-0.3,0-0.7,0H106v4H104.9z"/>
</g>
<g id="g4751" transform="translate(203.6136,390.7014)">
	<path id="path4753" inkscape:connector-curvature="0" class="st0" d="M107.3-219.6c4.7,0,8.5-3.8,8.5-8.5c0-4.7-3.8-8.5-8.5-8.5
		c-4.7,0-8.5,3.8-8.5,8.5C98.8-223.4,102.6-219.6,107.3-219.6 M100.1-228.1c0-4,3.2-7.2,7.2-7.2c4,0,7.2,3.2,7.2,7.2
		c0,3.9-3.2,7.2-7.2,7.2C103.3-220.9,100.1-224.1,100.1-228.1"/>
</g>
</svg>
